<svg width="510" height="230" viewBox="0 0 510 230" fill="none" xmlns="http://www.w3.org/2000/svg">
<path d="M147.5 43.5001C31.9 -0.0999222 1 149.667 0 230L510 230V109C486.167 83.0001 422.1 35.0001 356.5 51.0001C274.5 71.0001 292 98.0001 147.5 43.5001Z" fill="url(#paint0_linear)"/>
<path d="M0 138.5V230L510 230V132.5C427.5 142 333 110.5 332.5 109C285.5 91 197.5 201 115 132C49 76.8 10.8333 113.333 0 138.5Z" fill="url(#paint1_linear)"/>
<path d="M160 101.5C58.5 101.5 7.38333e-05 177 0.00012207 230H510V155.5C450.5 124.5 417.5 175.819 353.5 167C248.5 152.531 248.5 101.5 160 101.5Z" fill="url(#paint2_linear)"/>
<path d="M173 126.565V124.225C173 123.748 173.238 123.51 173.715 123.51H175.6C176.077 123.51 176.315 123.748 176.315 124.225V126.37C176.315 130.703 178.417 132.87 182.62 132.87H189.38C193.583 132.87 195.685 130.682 195.685 126.305V123.575C195.685 121.668 194.905 120.173 193.345 119.09C191.785 118.007 189.9 117.227 187.69 116.75C185.48 116.273 183.248 115.775 180.995 115.255C178.785 114.735 176.9 113.782 175.34 112.395C173.78 111.008 173 109.145 173 106.805V103.23C173 100.37 173.823 98.1167 175.47 96.47C177.117 94.8233 179.348 94 182.165 94H189.705C192.522 94 194.753 94.8233 196.4 96.47C198.047 98.1167 198.87 100.37 198.87 103.23V105.05C198.87 105.527 198.632 105.765 198.155 105.765H196.27C195.793 105.765 195.555 105.527 195.555 105.05V103.425C195.555 99.0917 193.453 96.925 189.25 96.925H182.555C178.395 96.925 176.315 99.135 176.315 103.555V106.805C176.315 109.795 178.98 111.81 184.31 112.85C186.52 113.283 188.73 113.782 190.94 114.345C193.193 114.908 195.1 115.927 196.66 117.4C198.22 118.873 199 120.867 199 123.38V126.565C199 129.425 198.177 131.678 196.53 133.325C194.883 134.972 192.652 135.795 189.835 135.795H182.165C179.348 135.795 177.117 134.972 175.47 133.325C173.823 131.678 173 129.425 173 126.565Z" fill="white"/>
<path d="M208.654 135.795H206.639C206.162 135.795 206.011 135.535 206.184 135.015L219.119 94.78C219.249 94.26 219.552 94 220.029 94H223.084C223.517 94 223.821 94.26 223.994 94.78L236.929 135.015C237.059 135.535 236.907 135.795 236.474 135.795H234.394C233.961 135.795 233.679 135.535 233.549 135.015L230.039 124.615H213.009L209.499 135.015C209.326 135.535 209.044 135.795 208.654 135.795ZM221.394 97.575L213.919 121.69H229.194L221.654 97.575H221.394Z" fill="white"/>
<path d="M255.857 135.795H253.972C253.496 135.795 253.257 135.535 253.257 135.015V120L240.647 94.78C240.387 94.26 240.539 94 241.102 94H243.442C243.832 94 244.136 94.26 244.352 94.78L254.752 116.035H255.077L265.412 94.78C265.629 94.26 265.932 94 266.322 94H268.727C269.204 94 269.356 94.26 269.182 94.78L256.507 120V135.015C256.507 135.535 256.291 135.795 255.857 135.795Z" fill="white"/>
<path d="M275.368 135.795H273.353C272.876 135.795 272.725 135.535 272.898 135.015L285.833 94.78C285.963 94.26 286.266 94 286.743 94H289.798C290.231 94 290.535 94.26 290.708 94.78L303.643 135.015C303.773 135.535 303.621 135.795 303.188 135.795H301.108C300.675 135.795 300.393 135.535 300.263 135.015L296.753 124.615H279.723L276.213 135.015C276.04 135.535 275.758 135.795 275.368 135.795ZM288.108 97.575L280.633 121.69H295.908L288.368 97.575H288.108Z" fill="white"/>
<path d="M313.666 135.795H311.781C311.348 135.795 311.131 135.535 311.131 135.015V94.78C311.131 94.26 311.348 94 311.781 94H313.536C313.926 94 314.186 94.13 314.316 94.39L334.271 128.71H334.531V94.78C334.531 94.26 334.769 94 335.246 94H337.066C337.543 94 337.781 94.26 337.781 94.78V135.015C337.781 135.535 337.543 135.795 337.066 135.795H335.571C335.181 135.795 334.834 135.557 334.531 135.08L314.641 101.02H314.381V135.015C314.381 135.535 314.143 135.795 313.666 135.795Z" fill="white"/>
<defs>
<linearGradient id="paint0_linear" x1="255" y1="35.699" x2="255" y2="180.037" gradientUnits="userSpaceOnUse">
<stop stop-color="#56CCF2"/>
<stop offset="1" stop-color="#2F80ED"/>
</linearGradient>
<linearGradient id="paint1_linear" x1="256.689" y1="138.279" x2="256.689" y2="246.588" gradientUnits="userSpaceOnUse">
<stop stop-color="#396AFC"/>
<stop offset="1" stop-color="#2948FF"/>
</linearGradient>
<linearGradient id="paint2_linear" x1="256.584" y1="93.9409" x2="256.584" y2="186.746" gradientUnits="userSpaceOnUse">
<stop stop-color="#B2FEFA"/>
<stop offset="1" stop-color="#0ED2F7"/>
</linearGradient>
</defs>
</svg>
